<svg viewBox="0 0 260 260" xmlns="http://www.w3.org/2000/svg" >
    <path class="icon" d="M136.112,255.592c-9.666,-2.975 -27.445,-27.656 -29.584,-37.532c-5.471,-1.857 -51.221,-81.033 -54.797,-95.667c-3.575,-14.635 -11.563,-28.822 -16.864,-48.951c-4.244,-16.119 -7.241,-25.289 -5.543,-39.146c1.839,-15 30.755,-37.205 51.263,-21.862c19.788,14.804 36.485,46.043 45.532,46.458c9.396,0.432 19.952,-21.41 32.457,-35.993c19.525,-22.768 49.6,-17.252 56.846,14.799c2.802,12.397 -26.734,86.301 -31.419,108.198c-4.684,21.898 -8.722,42.338 -12.113,61.319c-3.39,18.982 -26.111,51.352 -35.778,48.377Z" />
</svg>
