<svg xmlns="http://www.w3.org/2000/svg" viewBox="0 0 600 600">
  <g transform="translate(0,-452.36216)">
    <g
       transform="matrix(1.25,0,0,-1.25,2.8571469,1055.2193)">
      <g transform="translate(292.9438,241.539)">
        <path
            class="type"
           d="M 0,0 C 31.649,14.823 65.91,38.239 63.431,61.086 61.328,80.467 48.978,48.774 0.234,31.039 c 0.714,26.986 2.651,58.556 5.467,95.736 3.844,50.768 36.297,86.186 3.433,85.023 -30.684,-1.086 -43.832,-40.949 -42.617,-78.814 1.506,-46.92 0.278,-79.977 -0.025,-110.332 -4.54,-0.604 -9.416,-1.04 -14.45,-1.413 -10.517,45.533 -32.302,81.209 -53.486,65.222 -24.22,-18.279 11.072,-34.891 22.923,-67.54 -21.073,-2.311 -38.412,-7.311 -37.923,-23.21 0.383,-12.431 17.478,-16.438 38.896,-15.494 -7.412,-26.152 -29.096,-48.447 -48.396,-51.756 -37.975,-6.51 -57,59.5 -69,63.5 -12,4 -10.237,-68 9,-92.5 27.201,-34.643 91.849,-54.175 127.5,20 10.669,22.197 14.885,44.584 14.839,65.48 3.525,0.785 7.003,1.649 10.39,2.578 0.634,-19.235 2.24,-39.157 5.791,-62.725 7.897,-52.409 30.908,-122.63 69.955,-102.657 27.333,13.98 -15.137,39.042 -34.972,111.062 C 2.74,-49.304 0.418,-27.563 0,0" />
      </g>
    </g>
  </g>
</svg>
