<svg viewBox="0 0 256 255" xmlns="http://www.w3.org/2000/svg">
    <path class="type" d="M144.887,6.59c8.73,0.233 20.856,10.662 24.004,19.187c13.176,35.681 5.791,70.549 -17.706,100.416c-3.064,3.894 -14.372,15.78 -17.596,19.534c0,0 -0.036,3.815 0.081,6.376c0.748,16.342 4.558,33.152 14.579,45.573c5.651,7.005 14.538,13.606 22.816,9.052c7.676,-4.222 9.619,-13.986 10.465,-21.797c0.994,-9.172 0.153,-18.49 -1.356,-27.6c0,0 -0.205,-3.261 1.864,-4.96c4.016,-3.3 7.031,1.027 13.958,1.798c8.437,0.909 10.322,6.459 22.227,-2.903c4.592,-3.61 16.183,-17.313 19.025,-14.412c2.745,2.803 -5.079,17.181 -15.05,24.361c-19.177,13.808 -17.631,2.861 -30.16,1.325l-0.414,-0.05c0.083,0.674 0.158,1.349 0.231,2.025c2.065,19.778 6.979,52.865 -9.596,61.511c-14.877,7.761 -36.429,-4.415 -44.678,-23.426c-7.883,-18.168 -13.224,-33.248 -14.223,-45.658c-0.49,0.5 -7.482,5.685 -16.255,11.72c-3.777,28.15 -10.966,59.52 -34.724,74.121c-13.919,8.555 -36.05,6.323 -47.3,-6.634c-6.443,-7.42 -10.627,-22.393 -2.014,-31.223c19.255,-19.74 49.279,-25.922 72.14,-41.031l1.928,-1.283c1.305,-13.511 -0.077,-33.248 3.987,-34.982c4.373,-1.866 4.97,8.361 5.804,14.808c1.093,8.438 0.858,5.073 1.31,12.421c0.613,-0.456 1.224,-0.916 1.832,-1.379c8.245,-6.318 12.148,-10.85 12.148,-10.85c-3.839,-35.73 -8.628,-74.16 -2.968,-109.545c1.972,-12.324 12.026,-26.025 25.033,-26.492c0.203,-0.004 0.405,-0.005 0.608,-0.003Zm-51.658,171.268c-19.25,12.513 -40.025,22.995 -56.88,38.611c-5.44,5.04 -12.195,12.06 -5.241,17.115c6.949,5.051 17.268,2.348 25.4,-1.773c20.1,-10.183 33.096,-32.135 38.242,-54.335l0.162,-0.715c-0.561,0.366 -1.122,0.732 -1.683,1.097Zm51.347,-160.673c-3.407,0.123 -4.395,5.013 -5.395,8.116c-5.626,17.453 -5.067,36.673 -5.338,55.183c-0.233,15.928 -0.059,31.895 -0.103,47.837l-0.003,0.671c21.273,-26.189 28.836,-63.351 19.334,-95.623c-1.739,-5.907 -3.474,-12.745 -8.307,-16.072c-0.065,-0.043 -0.114,-0.113 -0.188,-0.112Z" />
    <path class="icon" d="M101.95,118.704c-4.094,1.3 -27.451,-25.259 -29.606,-28.776c-1.725,-2.815 -2.817,-4.384 -3.286,-7.109c-0.507,-2.951 3.71,-8.814 8.477,-7.074c4.599,1.678 9.55,6.651 11.29,6.214c1.807,-0.455 2.563,-5.201 4.102,-8.681c2.405,-5.435 9.731,-6.665 11.629,-0.438c1.776,5.823 1.287,44.627 -2.606,45.864Z" />
</svg>
