<svg viewBox="0 0 594 125">
    <path d="M69.445,27.495c0,3.968 -1.088,7.504 -3.264,10.608c-2.176,3.104 -5.152,5.68 -8.928,7.728c2.432,1.664 4.368,3.696 5.808,6.096c1.44,2.4 2.16,5.04 2.16,7.92c0,3.456 -1.04,6.864 -3.12,10.224c-2.08,3.36 -4.848,6.336 -8.304,8.928c-3.456,2.592 -7.392,4.688 -11.808,6.288c-4.416,1.6 -8.928,2.4 -13.536,2.4c-4.992,0 -9.36,-0.944 -13.104,-2.832c-3.744,-1.888 -6.672,-4.56 -8.784,-8.016c0.64,-1.92 1.488,-4.304 2.544,-7.152c1.056,-2.848 2.224,-5.856 3.504,-9.024c1.28,-3.168 2.576,-6.32 3.888,-9.456c1.312,-3.136 2.544,-5.952 3.696,-8.448c2.432,-5.44 4.608,-9.952 6.528,-13.536c1.92,-3.584 3.68,-6.432 5.28,-8.544c-3.52,1.088 -6.72,2.32 -9.6,3.696c-2.88,1.376 -4.992,2.704 -6.336,3.984c-0.576,-0.384 -1.168,-0.96 -1.776,-1.728c-0.608,-0.768 -1.184,-1.616 -1.728,-2.544c-0.544,-0.928 -0.992,-1.872 -1.344,-2.832c-0.352,-0.96 -0.56,-1.824 -0.624,-2.592c1.664,-1.152 3.824,-2.256 6.48,-3.312c2.656,-1.056 5.552,-1.968 8.688,-2.736c3.136,-0.768 6.352,-1.376 9.648,-1.824c3.296,-0.448 6.448,-0.672 9.456,-0.672c7.68,0 13.696,1.536 18.048,4.608c4.352,3.072 6.528,7.328 6.528,12.768Zm-36.576,22.944c-1.216,-0.576 -2.336,-1.44 -3.36,-2.592c-1.472,3.264 -2.864,6.464 -4.176,9.6c-1.312,3.136 -2.48,6.048 -3.504,8.736c-1.024,2.688 -1.856,5.024 -2.496,7.008c-0.64,1.984 -0.992,3.424 -1.056,4.32c0.896,0.512 1.968,0.896 3.216,1.152c1.248,0.256 2.8,0.384 4.656,0.384c4.352,0 8.512,-0.608 12.48,-1.824c3.968,-1.216 7.456,-2.864 10.464,-4.944c3.008,-2.08 5.408,-4.464 7.2,-7.152c1.792,-2.688 2.688,-5.504 2.688,-8.448c0,-4.224 -1.824,-7.264 -5.472,-9.12c-4.992,2.048 -10.624,3.072 -16.896,3.072c-0.896,0 -1.584,0 -2.064,0c-0.48,0 -1.04,-0.064 -1.68,-0.192Zm18.624,-33.312c-1.344,0 -2.768,0.08 -4.272,0.24c-1.504,0.16 -3.088,0.4 -4.752,0.72c0.256,0.256 0.464,0.528 0.624,0.816c0.16,0.288 0.304,0.592 0.432,0.912c-0.576,0.768 -1.28,1.888 -2.112,3.36c-0.832,1.472 -1.76,3.184 -2.784,5.136c-1.024,1.952 -2.096,4.112 -3.216,6.48c-1.12,2.368 -2.256,4.8 -3.408,7.296c1.088,-0.256 2.416,-0.464 3.984,-0.624c1.568,-0.16 3.12,-0.24 4.656,-0.24c0.832,0 1.648,0.032 2.448,0.096c0.8,0.064 1.584,0.16 2.352,0.288c3.072,-0.512 5.84,-1.264 8.304,-2.256c2.464,-0.992 4.592,-2.144 6.384,-3.456c1.792,-1.312 3.168,-2.768 4.128,-4.368c0.96,-1.6 1.44,-3.296 1.44,-5.088c0,-3.072 -1.216,-5.392 -3.648,-6.96c-2.432,-1.568 -5.952,-2.352 -10.56,-2.352Z" style="fill-rule:nonzero;"/>
    <path d="M101.989,40.647c-0.256,3.968 -0.96,7.376 -2.112,10.224c-1.152,2.848 -2.8,5.344 -4.944,7.488c-2.144,2.144 -4.752,4.08 -7.824,5.808c-3.072,1.728 -6.656,3.392 -10.752,4.992c0,0.384 -0.016,0.784 -0.048,1.2c-0.032,0.416 -0.048,0.848 -0.048,1.296c0,0.832 0.064,1.696 0.192,2.592c0.128,0.896 0.352,1.728 0.672,2.496c0.32,0.768 0.768,1.392 1.344,1.872c0.576,0.48 1.312,0.72 2.208,0.72c1.728,0 3.424,-0.384 5.088,-1.152c1.664,-0.768 3.248,-1.712 4.752,-2.832c1.504,-1.12 2.912,-2.336 4.224,-3.648c1.312,-1.312 2.48,-2.512 3.504,-3.6c0.64,0.576 1.184,1.12 1.632,1.632c-2.88,3.84 -6.032,7.024 -9.456,9.552c-3.424,2.528 -6.672,4.144 -9.744,4.848c-4.416,-0.512 -7.856,-2.128 -10.32,-4.848c-2.464,-2.72 -3.696,-6 -3.696,-9.84c0,-2.624 0.368,-5.296 1.104,-8.016c0.736,-2.72 1.76,-5.344 3.072,-7.872c1.312,-2.528 2.848,-4.912 4.608,-7.152c1.76,-2.24 3.648,-4.192 5.664,-5.856c2.016,-1.664 4.096,-2.976 6.24,-3.936c2.144,-0.96 4.272,-1.44 6.384,-1.44c2.944,0.384 5.696,2.208 8.256,5.472Zm-6.624,3.168c-1.728,0.256 -3.52,0.96 -5.376,2.112c-1.856,1.152 -3.6,2.688 -5.232,4.608c-1.632,1.92 -3.12,4.16 -4.464,6.72c-1.344,2.56 -2.4,5.312 -3.168,8.256c5.12,-2.56 9.376,-5.712 12.768,-9.456c3.392,-3.744 5.216,-7.824 5.472,-12.24Z" style="fill-rule:nonzero;"/>
    <path d="M103.141,63.495c0,-3.648 0.752,-7.184 2.256,-10.608c1.504,-3.424 3.488,-6.464 5.952,-9.12c2.464,-2.656 5.28,-4.8 8.448,-6.432c3.168,-1.632 6.448,-2.448 9.84,-2.448c3.328,0 5.888,0.832 7.68,2.496c1.792,1.664 2.688,4.032 2.688,7.104c0,1.472 -0.208,2.896 -0.624,4.272c-0.416,1.376 -0.96,2.608 -1.632,3.696c-0.672,1.088 -1.456,1.968 -2.352,2.64c-0.896,0.672 -1.792,1.008 -2.688,1.008c-0.768,0 -1.552,-0.24 -2.352,-0.72c-0.8,-0.48 -1.456,-1.104 -1.968,-1.872c4.288,-3.904 6.432,-7.456 6.432,-10.656c0,-1.856 -0.736,-2.784 -2.208,-2.784c-1.28,0 -2.88,0.608 -4.8,1.824c-1.92,1.216 -3.776,2.816 -5.568,4.8c-2.752,3.072 -4.848,6.48 -6.288,10.224c-1.44,3.744 -2.16,7.664 -2.16,11.76c0,5.184 1.152,8.288 3.456,9.312c0.96,-0.128 2.08,-0.416 3.36,-0.864c1.28,-0.448 2.656,-1.04 4.128,-1.776c1.472,-0.736 2.992,-1.584 4.56,-2.544c1.568,-0.96 3.088,-1.984 4.56,-3.072c0.256,0.192 0.48,0.48 0.672,0.864c0.192,0.384 0.288,0.736 0.288,1.056c-1.088,1.344 -2.336,2.656 -3.744,3.936c-1.408,1.28 -2.88,2.448 -4.416,3.504c-1.536,1.056 -3.024,1.952 -4.464,2.688c-1.44,0.736 -2.704,1.2 -3.792,1.392c-2.112,-0.192 -4.096,-0.848 -5.952,-1.968c-1.856,-1.12 -3.472,-2.576 -4.848,-4.368c-1.376,-1.792 -2.464,-3.84 -3.264,-6.144c-0.8,-2.304 -1.2,-4.704 -1.2,-7.2Z" style="fill-rule:nonzero;"/>
    <path d="M150.373,83.751c-3.648,-0.384 -6.56,-1.984 -8.736,-4.8c-2.176,-2.816 -3.264,-6.4 -3.264,-10.752c0,-2.56 0.384,-5.216 1.152,-7.968c0.768,-2.752 1.856,-5.424 3.264,-8.016c1.408,-2.592 3.072,-5.04 4.992,-7.344c1.92,-2.304 4,-4.288 6.24,-5.952c3.52,-2.624 6.816,-3.936 9.888,-3.936c2.048,1.088 4.064,3.36 6.048,6.816c0.32,0 0.608,-0.016 0.864,-0.048c0.256,-0.032 0.544,-0.048 0.864,-0.048c3.392,0 5.088,3.008 5.088,9.024c0,4.032 -0.656,7.856 -1.968,11.472c-1.312,3.616 -3.136,6.896 -5.472,9.84c-2.336,2.944 -5.12,5.424 -8.352,7.44c-3.232,2.016 -6.768,3.44 -10.608,4.272Zm4.896,-30.24c-1.088,1.472 -2.112,3.072 -3.072,4.8c-0.96,1.728 -1.792,3.472 -2.496,5.232c-0.704,1.76 -1.248,3.456 -1.632,5.088c-0.384,1.632 -0.576,3.088 -0.576,4.368c0,1.536 0.256,3.008 0.768,4.416c0.512,1.408 1.088,2.208 1.728,2.4c2.88,-0.64 5.52,-1.84 7.92,-3.6c2.4,-1.76 4.48,-3.952 6.24,-6.576c1.76,-2.624 3.136,-5.6 4.128,-8.928c0.992,-3.328 1.488,-6.88 1.488,-10.656c0,-1.664 -0.096,-2.976 -0.288,-3.936c-0.192,-0.96 -0.512,-1.792 -0.96,-2.496c-2.816,0.832 -5.328,2.176 -7.536,4.032c-2.208,1.856 -4.112,3.808 -5.712,5.856Z" style="fill-rule:nonzero;"/>
    <path d="M233.029,50.919c-1.024,0.064 -2.272,0.72 -3.744,1.968c-1.472,1.248 -3.056,2.848 -4.752,4.8c-1.696,1.952 -3.456,4.112 -5.28,6.48c-1.824,2.368 -3.584,4.72 -5.28,7.056c-1.696,2.336 -3.28,4.528 -4.752,6.576c-1.472,2.048 -2.72,3.68 -3.744,4.896c-1.408,-0.576 -2.624,-1.424 -3.648,-2.544c-1.024,-1.12 -1.76,-2.512 -2.208,-4.176c0.32,-1.984 0.768,-4.048 1.344,-6.192c0.576,-2.144 1.328,-4.368 2.256,-6.672c0.928,-2.304 2.08,-4.72 3.456,-7.248c1.376,-2.528 3.056,-5.2 5.04,-8.016c-0.96,0.064 -2.272,0.752 -3.936,2.064c-1.664,1.312 -3.456,3.008 -5.376,5.088c-1.92,2.08 -3.904,4.416 -5.952,7.008c-2.048,2.592 -3.968,5.136 -5.76,7.632c-2.368,3.328 -4.336,6.24 -5.904,8.736c-1.568,2.496 -2.704,3.968 -3.408,4.416c-1.664,-1.216 -2.816,-2.528 -3.456,-3.936c-0.64,-1.408 -1.12,-2.976 -1.44,-4.704c0.064,-1.536 0.304,-3.456 0.72,-5.76c0.416,-2.304 1.008,-4.672 1.776,-7.104c1.472,-4.672 3.376,-9.312 5.712,-13.92c2.336,-4.608 4.592,-8.832 6.768,-12.672c1.792,0.384 3.408,0.992 4.848,1.824c1.44,0.832 2.96,2.048 4.56,3.648c-0.64,1.984 -1.632,4.08 -2.976,6.288c-1.344,2.208 -2.752,4.528 -4.224,6.96c-1.472,2.432 -2.816,4.928 -4.032,7.488c-1.216,2.56 -2.016,5.152 -2.4,7.776c1.792,-2.56 3.92,-5.504 6.384,-8.832c2.464,-3.328 4.992,-6.464 7.584,-9.408c2.592,-2.944 5.168,-5.44 7.728,-7.488c2.56,-2.048 4.864,-3.072 6.912,-3.072c0.768,0 1.6,0.128 2.496,0.384c0.896,0.256 1.728,0.576 2.496,0.96c0.768,0.384 1.408,0.752 1.92,1.104c0.512,0.352 0.8,0.624 0.864,0.816c-0.32,1.28 -1.072,3.024 -2.256,5.232c-1.184,2.208 -2.448,4.528 -3.792,6.96c-1.344,2.432 -2.592,4.784 -3.744,7.056c-1.152,2.272 -1.824,4.08 -2.016,5.424c3.136,-4.288 6.08,-8.176 8.832,-11.664c2.752,-3.488 5.344,-6.48 7.776,-8.976c2.432,-2.496 4.688,-4.416 6.768,-5.76c2.08,-1.344 4.048,-2.016 5.904,-2.016c1.28,0 2.48,0.336 3.6,1.008c1.12,0.672 1.904,1.648 2.352,2.928c-0.576,1.92 -1.52,4.224 -2.832,6.912c-1.312,2.688 -2.64,5.52 -3.984,8.496c-1.344,2.976 -2.544,5.904 -3.6,8.784c-1.056,2.88 -1.584,5.472 -1.584,7.776c0,1.344 0.192,2.224 0.576,2.64c0.384,0.416 0.928,0.624 1.632,0.624c0.768,0 1.488,-0.144 2.16,-0.432c0.672,-0.288 1.168,-0.432 1.488,-0.432c0.384,0.256 0.608,0.576 0.672,0.96c0.064,0.384 0.096,0.736 0.096,1.056c-1.28,1.024 -2.592,1.872 -3.936,2.544c-1.344,0.672 -2.848,1.008 -4.512,1.008c-1.536,0 -2.8,-0.256 -3.792,-0.768c-0.992,-0.512 -1.808,-1.216 -2.448,-2.112c-0.64,-0.896 -1.088,-1.92 -1.344,-3.072c-0.256,-1.152 -0.384,-2.4 -0.384,-3.744c0,-2.176 0.288,-4.336 0.864,-6.48c0.576,-2.144 1.264,-4.192 2.064,-6.144c0.8,-1.952 1.648,-3.776 2.544,-5.472c0.896,-1.696 1.664,-3.216 2.304,-4.56Z" style="fill-rule:nonzero;"/>
    <path d="M245.317,73.959c0,-0.576 0.048,-1.296 0.144,-2.16c0.096,-0.864 0.272,-2.016 0.528,-3.456c0.256,-1.44 0.592,-3.184 1.008,-5.232c0.416,-2.048 0.944,-4.512 1.584,-7.392c0.128,-0.64 0.416,-1.664 0.864,-3.072c0.448,-1.408 1.04,-2.896 1.776,-4.464c0.736,-1.568 1.632,-3.088 2.688,-4.56c1.056,-1.472 2.32,-2.56 3.792,-3.264c1.088,0.256 2.528,0.912 4.32,1.968c1.792,1.056 3.328,2.512 4.608,4.368c-1.472,1.664 -2.704,3.328 -3.696,4.992c-0.992,1.664 -1.888,3.392 -2.688,5.184c-0.8,1.792 -1.536,3.648 -2.208,5.568c-0.672,1.92 -1.424,3.936 -2.256,6.048c-0.704,1.792 -1.344,3.632 -1.92,5.52c-0.576,1.888 -0.896,3.536 -0.96,4.944c0,1.152 -0.016,1.968 -0.048,2.448c-0.032,0.48 -0.208,0.72 -0.528,0.72c-0.256,0 -0.768,-0.16 -1.536,-0.48c-0.768,-0.32 -1.552,-0.816 -2.352,-1.488c-0.8,-0.672 -1.52,-1.52 -2.16,-2.544c-0.64,-1.024 -0.96,-2.24 -0.96,-3.648Z"/>
    <path class="heart" d="M264.071,34.454c-0.576,-0.544 -0.886,-2.878 -0.694,-3.646c-0.32,-0.32 -0.874,-7.484 -0.618,-8.636c0.256,-1.152 0.187,-2.425 0.512,-4.023c0.26,-1.28 0.368,-2.028 0.967,-2.942c0.649,-0.99 3.45,-1.548 4.359,0.24c0.877,1.726 0.968,4.499 1.589,4.842c0.645,0.356 2.144,-0.813 3.527,-1.404c2.161,-0.923 4.083,0.507 3.481,3.01c-0.233,0.968 -4.869,5.136 -5.957,6.512c-1.088,1.376 -2.08,2.672 -2.976,3.888c-0.896,1.216 -3.614,2.703 -4.19,2.159Z" />
    <path d="M279.589,33.831c1.664,0.512 3.232,1.648 4.704,3.408c1.472,1.76 2.56,3.696 3.264,5.808c-0.704,1.728 -1.792,3.808 -3.264,6.24c-1.472,2.432 -2.944,4.912 -4.416,7.44c-1.472,2.528 -2.8,4.928 -3.984,7.2c-1.184,2.272 -1.872,4.144 -2.064,5.616c1.024,-1.088 2.16,-2.352 3.408,-3.792c1.248,-1.44 2.464,-2.88 3.648,-4.32c1.184,-1.44 2.288,-2.752 3.312,-3.936c1.024,-1.184 1.824,-2.064 2.4,-2.64c1.216,-1.28 2.656,-2.768 4.32,-4.464c1.664,-1.696 3.408,-3.296 5.232,-4.8c1.824,-1.504 3.664,-2.784 5.52,-3.84c1.856,-1.056 3.552,-1.584 5.088,-1.584c1.664,0 3.056,0.56 4.176,1.68c1.12,1.12 2,2.288 2.64,3.504c0,0.128 -0.24,0.304 -0.72,0.528c-0.48,0.224 -1.168,0.848 -2.064,1.872c-0.896,1.152 -1.904,2.736 -3.024,4.752c-1.12,2.016 -2.208,4.192 -3.264,6.528c-1.056,2.336 -1.936,4.72 -2.64,7.152c-0.704,2.432 -1.056,4.64 -1.056,6.624c0,1.6 0.208,2.624 0.624,3.072c0.416,0.448 1.008,0.672 1.776,0.672c0.704,0 1.44,-0.16 2.208,-0.48c0.768,-0.32 1.376,-0.48 1.824,-0.48c0.256,0.128 0.464,0.4 0.624,0.816c0.16,0.416 0.24,0.784 0.24,1.104c-0.512,0.448 -1.12,0.896 -1.824,1.344c-0.704,0.448 -1.44,0.864 -2.208,1.248c-0.768,0.384 -1.52,0.704 -2.256,0.96c-0.736,0.256 -1.392,0.384 -1.968,0.384c-1.856,0 -3.376,-0.272 -4.56,-0.816c-1.184,-0.544 -2.112,-1.264 -2.784,-2.16c-0.672,-0.896 -1.136,-1.968 -1.392,-3.216c-0.256,-1.248 -0.384,-2.576 -0.384,-3.984c0,-0.768 0.064,-1.632 0.192,-2.592c0.128,-0.96 0.384,-2.096 0.768,-3.408c0.384,-1.312 0.928,-2.88 1.632,-4.704c0.704,-1.824 1.6,-4.016 2.688,-6.576c-0.128,0 -0.992,0.448 -2.592,1.344c-1.6,0.896 -3.328,2.272 -5.184,4.128c-3.008,2.88 -5.712,5.728 -8.112,8.544c-2.4,2.816 -4.848,5.952 -7.344,9.408c-1.408,1.984 -2.64,3.664 -3.696,5.04c-1.056,1.376 -1.968,2.288 -2.736,2.736c-1.344,-0.768 -2.336,-1.84 -2.976,-3.216c-0.64,-1.376 -1.12,-2.8 -1.44,-4.272c0,-1.216 0.176,-2.752 0.528,-4.608c0.352,-1.856 0.832,-3.92 1.44,-6.192c0.608,-2.272 1.36,-4.656 2.256,-7.152c0.896,-2.496 1.888,-4.992 2.976,-7.488c2.432,-5.632 4.656,-10.048 6.672,-13.248c2.016,-3.2 3.28,-4.928 3.792,-5.184Z" style="fill-rule:nonzero;"/>
    <path d="M290.725,108.999c0,-0.384 0.128,-0.736 0.384,-1.056c0.256,-0.32 0.544,-0.64 0.864,-0.96c0.768,0.704 1.424,1.248 1.968,1.632c0.544,0.384 1.056,0.704 1.536,0.96c0.48,0.256 0.976,0.416 1.488,0.48c0.512,0.064 1.12,0.096 1.824,0.096c3.328,0 6.496,-0.88 9.504,-2.64c3.008,-1.76 5.84,-4.304 8.496,-7.632c2.656,-3.328 5.072,-7.392 7.248,-12.192c2.176,-4.8 4.096,-10.24 5.76,-16.32c-0.768,0.768 -1.712,1.616 -2.832,2.544c-1.12,0.928 -2.288,1.808 -3.504,2.64c-1.216,0.832 -2.416,1.6 -3.6,2.304c-1.184,0.704 -2.192,1.216 -3.024,1.536c-1.088,-0.192 -2.096,-0.656 -3.024,-1.392c-0.928,-0.736 -1.744,-1.648 -2.448,-2.736c-0.704,-1.088 -1.248,-2.32 -1.632,-3.696c-0.384,-1.376 -0.576,-2.832 -0.576,-4.368c0,-2.496 0.464,-5.056 1.392,-7.68c0.928,-2.624 2.16,-5.2 3.696,-7.728c1.536,-2.528 3.344,-4.912 5.424,-7.152c2.08,-2.24 4.288,-4.192 6.624,-5.856c2.336,-1.664 4.704,-2.992 7.104,-3.984c2.4,-0.992 4.752,-1.488 7.056,-1.488c2.24,0 3.92,0.464 5.04,1.392c1.12,0.928 1.936,2.512 2.448,4.752c-0.704,-0.384 -1.6,-0.576 -2.688,-0.576c-1.536,0 -3.312,0.608 -5.328,1.824c-2.016,1.216 -4.064,2.8 -6.144,4.752c-2.08,1.952 -4.144,4.192 -6.192,6.72c-2.048,2.528 -3.856,5.104 -5.424,7.728c-1.568,2.624 -2.848,5.184 -3.84,7.68c-0.992,2.496 -1.488,4.736 -1.488,6.72c0,0.448 0.032,0.72 0.096,0.816c0.064,0.096 0.16,0.144 0.288,0.144c0.576,0 1.36,-0.32 2.352,-0.96c0.992,-0.64 2.112,-1.456 3.36,-2.448c1.248,-0.992 2.544,-2.144 3.888,-3.456c1.344,-1.312 2.624,-2.64 3.84,-3.984c2.752,-3.072 5.264,-6.512 7.536,-10.32c2.272,-3.808 4.08,-7.504 5.424,-11.088c1.728,0.128 3.264,0.416 4.608,0.864c1.344,0.448 2.272,0.928 2.784,1.44c-2.176,4.992 -3.92,9.184 -5.232,12.576c-1.312,3.392 -2.448,6.4 -3.408,9.024c-1.728,4.608 -3.344,8.816 -4.848,12.624c-1.504,3.808 -3.04,7.328 -4.608,10.56c-1.568,3.232 -3.264,6.24 -5.088,9.024c-1.824,2.784 -3.888,5.456 -6.192,8.016c-1.088,1.216 -2.32,2.288 -3.696,3.216c-1.376,0.928 -2.784,1.712 -4.224,2.352c-1.44,0.64 -2.848,1.12 -4.224,1.44c-1.376,0.32 -2.64,0.48 -3.792,0.48c-1.536,0 -3.104,-0.176 -4.704,-0.528c-1.6,-0.352 -3.088,-0.832 -4.464,-1.44c-1.376,-0.608 -2.576,-1.312 -3.6,-2.112c-1.024,-0.8 -1.76,-1.648 -2.208,-2.544Z" style="fill-rule:nonzero;"/>
    <path d="M404.869,9.447c2.432,0 4.96,0.448 7.584,1.344c2.624,0.896 4.928,2.048 6.912,3.456c-0.64,3.264 -1.232,6.208 -1.776,8.832c-0.544,2.624 -1.04,5.008 -1.488,7.152c-0.448,2.144 -0.88,4.096 -1.296,5.856c-0.416,1.76 -0.816,3.408 -1.2,4.944c-1.536,5.76 -3.12,10.96 -4.752,15.6c-1.632,4.64 -3.36,8.816 -5.184,12.528c-1.824,3.712 -3.744,7.008 -5.76,9.888c-2.016,2.88 -4.176,5.408 -6.48,7.584c-2.24,2.112 -4.48,3.84 -6.72,5.184c-2.24,1.344 -4.32,2.208 -6.24,2.592c-2.56,0 -4.928,-0.288 -7.104,-0.864c-2.176,-0.576 -4.048,-1.36 -5.616,-2.352c-1.568,-0.992 -2.784,-2.176 -3.648,-3.552c-0.864,-1.376 -1.296,-2.896 -1.296,-4.56c0,-1.792 0.448,-4.048 1.344,-6.768c0.896,-2.72 2.272,-5.936 4.128,-9.648c0.768,0.064 1.664,0.256 2.688,0.576c1.024,0.32 2.048,0.704 3.072,1.152c1.024,0.448 1.952,0.944 2.784,1.488c0.832,0.544 1.44,1.072 1.824,1.584c-2.048,2.112 -3.712,4.432 -4.992,6.96c-1.28,2.528 -1.92,4.72 -1.92,6.576c0,1.088 0.208,2.064 0.624,2.928c0.416,0.864 1.136,1.648 2.16,2.352c3.904,-1.472 7.712,-4.208 11.424,-8.208c3.712,-4 7.008,-8.976 9.888,-14.928c1.728,-3.52 3.296,-7.552 4.704,-12.096c1.408,-4.544 2.608,-9.104 3.6,-13.68c0.992,-4.576 1.76,-8.96 2.304,-13.152c0.544,-4.192 0.816,-7.728 0.816,-10.608c0,-0.448 -0.016,-1.072 -0.048,-1.872c-0.032,-0.8 -0.064,-1.632 -0.096,-2.496c-0.032,-0.864 -0.08,-1.648 -0.144,-2.352c-0.064,-0.704 -0.096,-1.184 -0.096,-1.44Z" style="fill-rule:nonzero;"/>
    <path d="M446.725,40.647c-0.256,3.968 -0.96,7.376 -2.112,10.224c-1.152,2.848 -2.8,5.344 -4.944,7.488c-2.144,2.144 -4.752,4.08 -7.824,5.808c-3.072,1.728 -6.656,3.392 -10.752,4.992c0,0.384 -0.016,0.784 -0.048,1.2c-0.032,0.416 -0.048,0.848 -0.048,1.296c0,0.832 0.064,1.696 0.192,2.592c0.128,0.896 0.352,1.728 0.672,2.496c0.32,0.768 0.768,1.392 1.344,1.872c0.576,0.48 1.312,0.72 2.208,0.72c1.728,0 3.424,-0.384 5.088,-1.152c1.664,-0.768 3.248,-1.712 4.752,-2.832c1.504,-1.12 2.912,-2.336 4.224,-3.648c1.312,-1.312 2.48,-2.512 3.504,-3.6c0.64,0.576 1.184,1.12 1.632,1.632c-2.88,3.84 -6.032,7.024 -9.456,9.552c-3.424,2.528 -6.672,4.144 -9.744,4.848c-4.416,-0.512 -7.856,-2.128 -10.32,-4.848c-2.464,-2.72 -3.696,-6 -3.696,-9.84c0,-2.624 0.368,-5.296 1.104,-8.016c0.736,-2.72 1.76,-5.344 3.072,-7.872c1.312,-2.528 2.848,-4.912 4.608,-7.152c1.76,-2.24 3.648,-4.192 5.664,-5.856c2.016,-1.664 4.096,-2.976 6.24,-3.936c2.144,-0.96 4.272,-1.44 6.384,-1.44c2.944,0.384 5.696,2.208 8.256,5.472Zm-6.624,3.168c-1.728,0.256 -3.52,0.96 -5.376,2.112c-1.856,1.152 -3.6,2.688 -5.232,4.608c-1.632,1.92 -3.12,4.16 -4.464,6.72c-1.344,2.56 -2.4,5.312 -3.168,8.256c5.12,-2.56 9.376,-5.712 12.768,-9.456c3.392,-3.744 5.216,-7.824 5.472,-12.24Z" style="fill-rule:nonzero;"/>
    <path d="M461.893,33.831c1.664,0.512 3.232,1.648 4.704,3.408c1.472,1.76 2.56,3.696 3.264,5.808c-0.704,1.728 -1.792,3.808 -3.264,6.24c-1.472,2.432 -2.944,4.912 -4.416,7.44c-1.472,2.528 -2.8,4.928 -3.984,7.2c-1.184,2.272 -1.872,4.144 -2.064,5.616c1.024,-1.088 2.16,-2.352 3.408,-3.792c1.248,-1.44 2.464,-2.88 3.648,-4.32c1.184,-1.44 2.288,-2.752 3.312,-3.936c1.024,-1.184 1.824,-2.064 2.4,-2.64c1.216,-1.28 2.656,-2.768 4.32,-4.464c1.664,-1.696 3.408,-3.296 5.232,-4.8c1.824,-1.504 3.664,-2.784 5.52,-3.84c1.856,-1.056 3.552,-1.584 5.088,-1.584c1.664,0 3.056,0.56 4.176,1.68c1.12,1.12 2,2.288 2.64,3.504c0,0.128 -0.24,0.304 -0.72,0.528c-0.48,0.224 -1.168,0.848 -2.064,1.872c-0.896,1.152 -1.904,2.736 -3.024,4.752c-1.12,2.016 -2.208,4.192 -3.264,6.528c-1.056,2.336 -1.936,4.72 -2.64,7.152c-0.704,2.432 -1.056,4.64 -1.056,6.624c0,1.6 0.208,2.624 0.624,3.072c0.416,0.448 1.008,0.672 1.776,0.672c0.704,0 1.44,-0.16 2.208,-0.48c0.768,-0.32 1.376,-0.48 1.824,-0.48c0.256,0.128 0.464,0.4 0.624,0.816c0.16,0.416 0.24,0.784 0.24,1.104c-0.512,0.448 -1.12,0.896 -1.824,1.344c-0.704,0.448 -1.44,0.864 -2.208,1.248c-0.768,0.384 -1.52,0.704 -2.256,0.96c-0.736,0.256 -1.392,0.384 -1.968,0.384c-1.856,0 -3.376,-0.272 -4.56,-0.816c-1.184,-0.544 -2.112,-1.264 -2.784,-2.16c-0.672,-0.896 -1.136,-1.968 -1.392,-3.216c-0.256,-1.248 -0.384,-2.576 -0.384,-3.984c0,-0.768 0.064,-1.632 0.192,-2.592c0.128,-0.96 0.384,-2.096 0.768,-3.408c0.384,-1.312 0.928,-2.88 1.632,-4.704c0.704,-1.824 1.6,-4.016 2.688,-6.576c-0.128,0 -0.992,0.448 -2.592,1.344c-1.6,0.896 -3.328,2.272 -5.184,4.128c-3.008,2.88 -5.712,5.728 -8.112,8.544c-2.4,2.816 -4.848,5.952 -7.344,9.408c-1.408,1.984 -2.64,3.664 -3.696,5.04c-1.056,1.376 -1.968,2.288 -2.736,2.736c-1.344,-0.768 -2.336,-1.84 -2.976,-3.216c-0.64,-1.376 -1.12,-2.8 -1.44,-4.272c0,-1.216 0.176,-2.752 0.528,-4.608c0.352,-1.856 0.832,-3.92 1.44,-6.192c0.608,-2.272 1.36,-4.656 2.256,-7.152c0.896,-2.496 1.888,-4.992 2.976,-7.488c2.432,-5.632 4.656,-10.048 6.672,-13.248c2.016,-3.2 3.28,-4.928 3.792,-5.184Z" style="fill-rule:nonzero;"/>
    <path d="M509.893,33.831c1.664,0.512 3.232,1.648 4.704,3.408c1.472,1.76 2.56,3.696 3.264,5.808c-0.704,1.728 -1.792,3.808 -3.264,6.24c-1.472,2.432 -2.944,4.912 -4.416,7.44c-1.472,2.528 -2.8,4.928 -3.984,7.2c-1.184,2.272 -1.872,4.144 -2.064,5.616c1.024,-1.088 2.16,-2.352 3.408,-3.792c1.248,-1.44 2.464,-2.88 3.648,-4.32c1.184,-1.44 2.288,-2.752 3.312,-3.936c1.024,-1.184 1.824,-2.064 2.4,-2.64c1.216,-1.28 2.656,-2.768 4.32,-4.464c1.664,-1.696 3.408,-3.296 5.232,-4.8c1.824,-1.504 3.664,-2.784 5.52,-3.84c1.856,-1.056 3.552,-1.584 5.088,-1.584c1.664,0 3.056,0.56 4.176,1.68c1.12,1.12 2,2.288 2.64,3.504c0,0.128 -0.24,0.304 -0.72,0.528c-0.48,0.224 -1.168,0.848 -2.064,1.872c-0.896,1.152 -1.904,2.736 -3.024,4.752c-1.12,2.016 -2.208,4.192 -3.264,6.528c-1.056,2.336 -1.936,4.72 -2.64,7.152c-0.704,2.432 -1.056,4.64 -1.056,6.624c0,1.6 0.208,2.624 0.624,3.072c0.416,0.448 1.008,0.672 1.776,0.672c0.704,0 1.44,-0.16 2.208,-0.48c0.768,-0.32 1.376,-0.48 1.824,-0.48c0.256,0.128 0.464,0.4 0.624,0.816c0.16,0.416 0.24,0.784 0.24,1.104c-0.512,0.448 -1.12,0.896 -1.824,1.344c-0.704,0.448 -1.44,0.864 -2.208,1.248c-0.768,0.384 -1.52,0.704 -2.256,0.96c-0.736,0.256 -1.392,0.384 -1.968,0.384c-1.856,0 -3.376,-0.272 -4.56,-0.816c-1.184,-0.544 -2.112,-1.264 -2.784,-2.16c-0.672,-0.896 -1.136,-1.968 -1.392,-3.216c-0.256,-1.248 -0.384,-2.576 -0.384,-3.984c0,-0.768 0.064,-1.632 0.192,-2.592c0.128,-0.96 0.384,-2.096 0.768,-3.408c0.384,-1.312 0.928,-2.88 1.632,-4.704c0.704,-1.824 1.6,-4.016 2.688,-6.576c-0.128,0 -0.992,0.448 -2.592,1.344c-1.6,0.896 -3.328,2.272 -5.184,4.128c-3.008,2.88 -5.712,5.728 -8.112,8.544c-2.4,2.816 -4.848,5.952 -7.344,9.408c-1.408,1.984 -2.64,3.664 -3.696,5.04c-1.056,1.376 -1.968,2.288 -2.736,2.736c-1.344,-0.768 -2.336,-1.84 -2.976,-3.216c-0.64,-1.376 -1.12,-2.8 -1.44,-4.272c0,-1.216 0.176,-2.752 0.528,-4.608c0.352,-1.856 0.832,-3.92 1.44,-6.192c0.608,-2.272 1.36,-4.656 2.256,-7.152c0.896,-2.496 1.888,-4.992 2.976,-7.488c2.432,-5.632 4.656,-10.048 6.672,-13.248c2.016,-3.2 3.28,-4.928 3.792,-5.184Z" style="fill-rule:nonzero;"/>
    <path d="M576.517,65.511c-1.472,4.672 -2.944,8.928 -4.416,12.768c-1.472,3.84 -3.04,7.376 -4.704,10.608c-1.664,3.232 -3.456,6.208 -5.376,8.928c-1.92,2.72 -4.032,5.296 -6.336,7.728c-2.944,3.072 -5.984,5.424 -9.12,7.056c-3.136,1.632 -6.272,2.448 -9.408,2.448c-1.6,0 -3.184,-0.176 -4.752,-0.528c-1.568,-0.352 -3.04,-0.832 -4.416,-1.44c-1.376,-0.608 -2.592,-1.312 -3.648,-2.112c-1.056,-0.8 -1.808,-1.648 -2.256,-2.544c0,-0.768 0.448,-1.44 1.344,-2.016c0.768,0.704 1.408,1.248 1.92,1.632c0.512,0.384 1.008,0.704 1.488,0.96c0.48,0.256 0.992,0.416 1.536,0.48c0.544,0.064 1.168,0.096 1.872,0.096c3.648,0 7.216,-1.072 10.704,-3.216c3.488,-2.144 6.784,-5.184 9.888,-9.12c3.104,-3.936 5.936,-8.704 8.496,-14.304c2.56,-5.6 4.736,-11.856 6.528,-18.768c-0.832,1.28 -1.856,2.848 -3.072,4.704c-1.216,1.856 -2.56,3.696 -4.032,5.52c-1.472,1.824 -2.992,3.472 -4.56,4.944c-1.568,1.472 -3.088,2.464 -4.56,2.976c-1.024,-0.064 -2.096,-0.272 -3.216,-0.624c-1.12,-0.352 -2.176,-0.848 -3.168,-1.488c-0.992,-0.64 -1.872,-1.408 -2.64,-2.304c-0.768,-0.896 -1.28,-1.92 -1.536,-3.072c0,-1.856 0.064,-3.344 0.192,-4.464c0.128,-1.12 0.352,-2.352 0.672,-3.696c0.576,-2.432 1.424,-5.184 2.544,-8.256c1.12,-3.072 2.432,-6.096 3.936,-9.072c1.504,-2.976 3.168,-5.76 4.992,-8.352c1.824,-2.592 3.728,-4.624 5.712,-6.096c0.512,0 1.152,0.048 1.92,0.144c0.768,0.096 1.568,0.272 2.4,0.528c0.832,0.256 1.632,0.56 2.4,0.912c0.768,0.352 1.44,0.816 2.016,1.392c-0.704,0.64 -2.24,2.784 -4.608,6.432c-2.368,3.648 -4.992,8.896 -7.872,15.744c-0.32,0.704 -0.704,1.728 -1.152,3.072c-0.448,1.344 -0.88,2.752 -1.296,4.224c-0.416,1.472 -0.784,2.912 -1.104,4.32c-0.32,1.408 -0.48,2.528 -0.48,3.36c0,0.512 0.08,0.896 0.24,1.152c0.16,0.256 0.304,0.448 0.432,0.576c1.152,-0.192 2.688,-1.136 4.608,-2.832c1.92,-1.696 4.096,-4.336 6.528,-7.92c1.536,-2.304 2.944,-4.592 4.224,-6.864c1.28,-2.272 2.544,-4.56 3.792,-6.864c1.248,-2.304 2.544,-4.672 3.888,-7.104c1.344,-2.432 2.784,-4.928 4.32,-7.488c0.832,0 1.728,0.096 2.688,0.288c0.96,0.192 1.888,0.432 2.784,0.72c0.896,0.288 1.68,0.608 2.352,0.96c0.672,0.352 1.168,0.72 1.488,1.104c-1.984,4.224 -3.84,8.352 -5.568,12.384c-1.728,4.032 -3.264,8.16 -4.608,12.384Z" style="fill-rule:nonzero;"/>
</svg>
